# xmcd
#
# Track frame offsets: 
#        150
#        35118
#        50172
#        80557
#        102169
#        131863
#        149843
#        170263
#        210632
#        237731
#        261139
#
# Disc length: 3729 seconds
#
# Revision: 1
# Processed by: cddbd v1.5.2PL0 Copyright (c) Steve Scherf et al.
# Submitted via: ExactAudioCopy v1.0b6
#
DISCID=af0e8f0b
DTITLE=Waits, Tom - Waits, Tom - Transmission Impossible - Legendary R
DTITLE=adio Broadcasts cd2 New York 1976
DYEAR=1976
DGENRE=Blues
TTITLE0=Emotional Weather Report
TTITLE1=A Sight for Sore Eyes
TTITLE2=Step Right Up
TTITLE3=Eggs and Sausage - Invitaion to the Blues
TTITLE4=Jitterbug Boy
TTITLE5=Diamonds On My Windshield
TTITLE6=San Diego Serenade
TTITLE7=Tom Traubert's Blues
TTITLE8=New Coat of Paint
TTITLE9=The Piano Has Been Drinking, Not Me
TTITLE10=I Can't Wait To Get Off Work
EXTD=
EXTT0=
EXTT1=
EXTT2=
EXTT3=
EXTT4=
EXTT5=
EXTT6=
EXTT7=
EXTT8=
EXTT9=
EXTT10=
PLAYORDER=
